# xmcd
#
# Track frame offsets: 
#        150
#        20477
#        40233
#        54464
#        76665
#        103247
#        120558
#        140562
#        165746
#        186581
#        206663
#        229018
#        258073
#        276159
#        296417
#
# Disc length: 4291 seconds
#
# Revision: 5
# Processed by: cddbd v1.5.2PL0 Copyright (c) Steve Scherf et al.
# Submitted via: ExactAudioCopy v1.0b3
#
DISCID=d410c10f
DTITLE=J.R.R. Tolkien - Die Kinder Hurins 6
DYEAR=2008
DGENRE=Speech
TTITLE0=Die Reise Morwens und Nienors nach Nargothrond 1
TTITLE1=Die Reise Morwens und Nienors nach Nargothrond 2
TTITLE2=Die Reise Morwens und Nienors nach Nargothrond 3
TTITLE3=Die Reise Morwens und Nienors nach Nargothrond 4
TTITLE4=Die Reise Morwens und Nienors nach Nargothrond 5
TTITLE5=Die Reise Morwens und Nienors nach Nargothrond 6
TTITLE6=Die Reise Morwens und Nienors nach Nargothrond 7
TTITLE7=Nienor in Brethil 1
TTITLE8=Nienor in Brethil 2
TTITLE9=Nienor in Brethil 3
TTITLE10=Die Ankunft Glaurungs 1
TTITLE11=Die Ankunft Glaurungs 2
TTITLE12=Die Ankunft Glaurungs 3
TTITLE13=Die Ankunft Glaurungs 4
TTITLE14=Die Ankunft Glaurungs 5
EXTD=gelesen von Gert Heidenreich YEAR: 2008
EXTT0=
EXTT1=
EXTT2=
EXTT3=
EXTT4=
EXTT5=
EXTT6=
EXTT7=
EXTT8=
EXTT9=
EXTT10=
EXTT11=
EXTT12=
EXTT13=
EXTT14=
PLAYORDER=
